<svg class="img-fluid" id="outputsvg" preserveAspectRatio="auto" xmlns="http://www.w3.org/2000/svg" style="transform: none; transform-origin: 50% 50%; cursor: move;" width="25" height="25" viewBox="0 0 3100 2630"><g id="l715QH2yYwjDM4KkHDok6oQ" fill="rgb(102,102,102)" style="transform: none;"><g><path id="p13WCoKAzI" d="M1169 2495 c-110 -21 -231 -61 -334 -111 -50 -25 -103 -44 -122 -44 -18 0 -33 -4 -33 -10 0 -5 5 -10 10 -10 21 0 7 -16 -42 -50 -46 -31 -258 -232 -258 -245 0 -11 51 -4 145 22 95 25 113 26 345 27 209 1 267 -2 395 -22 391 -60 900 -203 1184 -334 82 -37 131 -48 131 -28 0 6 -4 10 -9 10 -5 0 -21 30 -37 66 -24 56 -45 94 -122 218 -3 5 2 7 11 3 12 -4 17 -1 17 12 0 11 -22 30 -59 52 -33 19 -67 46 -75 61 -25 41 -193 177 -279 227 -109 62 -221 108 -334 138 -84 22 -124 26 -278 29 -127 2 -202 -1 -256 -11z m252 -155 c161 -12 350 -49 501 -96 60 -20 108 -37 106 -39 -1 -2 -50 7 -108 20 -146 33 -405 72 -595 90 -355 33 -349 32 -184 34 80 0 206 -4 280 -9z"></path><path id="pi9gYQFbx" d="M390 1979 c-79 -15 -90 -19 -90 -34 0 -8 6 -15 14 -15 11 0 2 -24 -29 -82 -253 -477 -167 -1077 211 -1463 185 -188 424 -315 678 -360 112 -19 328 -20 438 0 423 74 785 366 945 763 62 153 86 277 87 447 1 83 -2 176 -7 209 -6 50 -5 57 8 52 10 -3 15 1 15 13 0 22 -63 54 -217 112 -190 70 -560 179 -611 179 -17 0 -32 4 -34 9 -4 11 -355 91 -400 91 -19 0 -38 4 -43 9 -6 5 -66 18 -135 30 -297 50 -570 67 -570 36 0 -8 -6 -15 -14 -15 -8 0 -16 7 -20 15 -4 12 -24 15 -93 14 -48 -1 -108 -5 -133 -10z m370 -630 c5 -358 12 -429 41 -429 5 0 9 -7 9 -15 0 -8 11 -17 25 -21 15 -4 25 -13 25 -24 0 -12 16 -26 43 -39 55 -27 207 -30 265 -6 51 22 112 83 112 113 0 14 8 31 18 38 15 11 17 42 20 349 l4 336 31 -7 c18 -3 60 -15 95 -26 l62 -19 0 -294 c0 -185 4 -296 10 -300 6 -3 10 -21 10 -39 0 -42 34 -92 85 -128 67 -47 231 -61 270 -22 7 8 25 14 39 14 21 0 26 5 26 24 0 18 7 25 29 29 22 5 34 18 55 58 24 49 26 62 26 193 l0 139 21 -19 c12 -10 42 -50 67 -89 24 -38 49 -71 53 -73 5 -2 9 -18 9 -35 0 -18 5 -49 10 -69 9 -32 7 -44 -16 -90 -15 -29 -35 -65 -45 -80 -11 -14 -19 -33 -19 -42 0 -9 -8 -16 -19 -16 -10 0 -21 -6 -24 -13 -3 -7 -31 -31 -63 -52 -33 -21 -72 -48 -89 -59 -27 -19 -44 -21 -170 -20 -88 0 -143 -4 -147 -10 -5 -6 -8 -2 -8 10 0 25 -68 67 -120 74 -29 4 -36 10 -40 35 -4 26 -10 30 -40 33 -29 2 -46 -5 -91 -41 -31 -24 -85 -56 -120 -73 -58 -26 -74 -29 -169 -29 -148 1 -211 27 -313 134 -41 43 -86 102 -100 132 -52 107 -57 146 -58 491 0 176 2 322 5 325 5 6 154 21 171 18 6 -1 12 -135 15 -366z m323 -75 c28 -56 23 -70 -24 -78 -23 -4 -42 -5 -43 -4 0 2 -9 17 -18 35 -24 41 -23 63 2 63 11 0 20 5 20 10 0 6 10 10 23 10 15 0 27 -11 40 -36z m537 -713 c0 -6 -4 -13 -10 -16 -5 -3 -10 -16 -10 -27 0 -18 -4 -20 -36 -15 -45 8 -46 9 -38 41 5 23 11 26 50 26 24 0 44 -4 44 -9z"></path></g></g><g id="lfVlFJf2HKoq5A5siFlfm1" fill="rgb(255,255,255)" style="transform: none;"><g><path id="pthAAGTPf" d="M744 1765 c3 -8 2 -15 -2 -15 -32 -1 -195 -19 -197 -22 -2 -2 -5 -35 -6 -73 -3 -79 -7 -97 -20 -89 -14 8 -11 -30 4 -44 9 -10 14 -86 18 -280 5 -241 8 -273 27 -326 30 -80 70 -140 142 -211 41 -40 58 -65 55 -76 -6 -19 9 -34 25 -24 8 5 7 11 0 21 -7 8 12 4 49 -11 176 -72 368 -45 519 72 49 38 83 49 66 22 -14 -23 42 -80 112 -115 77 -37 108 -42 121 -20 6 11 19 12 63 5 50 -8 89 -7 178 7 24 4 32 1 32 -11 0 -23 28 -18 32 7 2 14 22 33 59 54 31 18 71 47 89 64 25 24 36 28 46 19 11 -9 18 -8 29 1 14 11 13 14 -2 25 -15 11 -15 14 4 41 38 53 73 133 73 164 0 17 -5 52 -12 77 -8 35 -8 50 0 64 14 23 16 49 3 49 -6 0 -13 -5 -17 -11 -4 -7 -23 15 -48 54 -36 56 -139 177 -152 177 -2 0 -4 -75 -4 -167 0 -177 -10 -221 -55 -267 -17 -17 -20 -17 -31 -2 -13 19 -29 6 -36 -29 -2 -13 -11 -19 -23 -18 -11 2 -31 0 -45 -3 l-25 -6 24 -13 24 -13 -23 -7 c-36 -11 -116 -7 -152 8 -45 19 -95 63 -114 99 -18 35 -14 44 14 29 20 -10 20 -10 5 19 -8 17 -23 35 -34 40 -18 10 -19 25 -19 305 l0 293 -47 16 c-80 25 -203 54 -203 47 0 -3 0 -122 -1 -265 0 -252 0 -258 -19 -253 -28 7 -27 -34 1 -51 21 -13 21 -20 4 -110 -2 -9 -4 -19 -4 -21 -1 -3 -6 0 -13 7 -7 7 -15 12 -19 12 -14 0 -16 -39 -3 -58 12 -17 9 -23 -24 -55 -20 -20 -54 -43 -74 -52 -54 -22 -152 -20 -205 6 -38 18 -42 23 -32 41 9 16 7 24 -5 36 -14 14 -16 14 -21 -1 -8 -18 -35 -11 -35 9 0 8 -4 14 -10 14 -24 0 -40 105 -40 263 0 137 2 158 15 153 10 -4 15 1 15 15 0 11 -7 22 -15 25 -12 5 -15 29 -15 133 1 114 2 124 15 101 14 -25 14 -24 15 17 0 28 -5 45 -16 51 -9 5 -16 13 -16 18 -1 25 -19 54 -34 54 -10 0 -14 -5 -10 -15z m790 -1126 c41 -24 41 -25 22 -32 -7 -3 -26 8 -42 24 -33 34 -28 36 20 8z"></path><path id="p1Gdl3uUQi" d="M1261 1693 c1 -22 3 -29 6 -18 3 11 9 24 14 30 14 14 11 25 -6 25 -11 0 -15 -10 -14 -37z"></path></g></g><g id="l5OpOqmloaN2TOaj2IK7Q9V" fill="rgb(150,193,30)" style="transform: none;"><g><path id="puaAxAk3K" d="M1145 2396 c-13 -8 -68 -16 -155 -21 -74 -4 -209 -19 -300 -35 l-165 -28 85 2 c47 0 155 0 240 -2 138 -2 153 -4 136 -17 -11 -8 -16 -18 -13 -22 4 -3 17 3 30 14 21 21 27 21 156 11 73 -6 193 -18 265 -27 114 -14 131 -18 128 -33 -4 -23 16 -23 41 -1 18 17 20 17 41 -10 26 -33 53 -38 36 -7 -10 18 -9 20 12 16 13 -3 63 -13 113 -21 62 -12 106 -26 146 -50 31 -18 67 -36 80 -40 13 -3 2 7 -26 24 -59 36 -54 38 36 11 147 -44 401 -164 534 -252 115 -77 -47 59 -193 161 -167 117 -397 213 -615 257 -62 12 -85 20 -78 27 16 16 13 27 -4 27 -9 0 -18 -7 -21 -15 -9 -21 -42 -19 -56 5 -7 11 -19 20 -27 20 -11 0 -11 -3 -1 -15 11 -13 8 -15 -16 -15 -16 0 -72 12 -123 25 -52 14 -113 25 -135 24 -34 -1 -28 -4 33 -15 82 -15 117 -27 56 -19 -22 3 -83 5 -134 5 -95 0 -118 15 -36 23 l40 4 -45 1 c-25 1 -54 -4 -65 -12z"></path><path id="p16pHh509x" d="M786 2131 c-25 -28 -164 -41 -178 -17 -12 22 -31 20 -24 -2 5 -15 -4 -20 -56 -31 -78 -16 -234 -80 -293 -121 -55 -38 -113 -97 -139 -142 l-20 -33 48 42 c67 59 140 91 257 114 123 23 197 25 205 4 4 -10 21 -15 55 -15 41 0 47 3 42 17 -6 15 4 16 108 10 110 -6 335 -35 469 -60 50 -10 64 -16 62 -29 -3 -22 29 -33 40 -13 5 8 14 15 21 15 7 0 96 -18 199 -41 166 -37 187 -44 190 -63 2 -13 12 -22 25 -24 17 -3 21 0 17 12 -3 9 -1 16 5 16 35 0 428 -119 589 -178 117 -42 123 -46 118 -68 -4 -13 -2 -24 3 -24 5 0 11 9 13 19 3 19 4 19 42 0 22 -10 44 -19 49 -19 21 0 173 -99 227 -147 74 -67 116 -133 136 -214 13 -52 14 -73 5 -107 -26 -94 -134 -171 -306 -217 l-50 -14 38 0 c58 -1 186 28 244 55 66 31 127 93 149 149 12 34 15 66 12 133 -3 75 -9 99 -40 164 -121 255 -524 481 -1177 659 -103 28 -125 37 -132 56 -10 28 -43 32 -34 4 5 -17 -1 -17 -107 7 -62 13 -115 26 -117 28 -2 2 2 10 9 19 11 13 9 15 -13 15 -14 0 -30 -7 -34 -14 -7 -13 -26 -12 -138 5 -76 12 -211 23 -323 26 -187 6 -192 7 -176 24 10 11 13 19 7 19 -5 0 -18 -9 -27 -19z"></path><path id="pNqp0h2Ap" d="M2410 1805 c13 -14 26 -23 28 -20 7 7 -29 45 -41 45 -6 0 0 -11 13 -25z"></path></g></g><g id="l2DHcJNXC8OLHPMfePb7VY6" fill="rgb(152,152,152)" style="transform: none;"><g><path id="pIO0T3uZD" d="M1509 2465 c17 -19 38 -49 46 -65 8 -16 24 -34 36 -40 18 -10 17 -7 -7 32 -30 49 -83 108 -97 108 -5 0 5 -16 22 -35z"></path><path id="p2IpwTSha" d="M1295 2459 c-32 -13 -86 -22 -153 -26 -116 -7 -148 -23 -46 -23 62 0 66 -1 48 -15 -15 -11 -16 -14 -3 -15 8 0 20 5 25 10 14 14 115 14 183 1 59 -12 87 -14 79 -6 -3 3 -36 11 -74 18 -37 7 -69 18 -71 24 -3 7 14 17 36 24 23 7 41 16 41 21 0 11 -8 10 -65 -13z"></path><path id="pNoUACok6" d="M1694 2407 c-31 -29 -45 -48 -40 -56 6 -9 22 1 57 36 27 26 49 51 49 56 0 16 -20 5 -66 -36z"></path><path id="pTfo95UAv" d="M980 2289 c-69 -43 -228 -180 -193 -168 10 3 117 88 211 166 34 28 27 29 -18 2z"></path><path id="pbfKsfagh" d="M1503 2163 c-71 -108 -68 -99 -45 -105 14 -4 31 16 79 93 51 81 59 99 43 99 -12 0 -38 -30 -77 -87z"></path><path id="p1BEKOJds5" d="M1673 2121 c28 -83 46 -121 58 -124 16 -4 16 -1 2 47 -30 103 -69 191 -84 194 -13 2 -8 -21 24 -117z"></path><path id="pLmQGMOYR" d="M575 2153 c6 -37 20 -61 29 -52 3 3 0 24 -6 47 -13 53 -33 57 -23 5z"></path><path id="p14EuMDSch" d="M1910 2186 c0 -4 92 -59 140 -83 52 -27 206 -149 296 -236 52 -49 94 -85 94 -80 0 18 -165 170 -265 244 -120 89 -265 174 -265 155z"></path><path id="pgtXoKTYT" d="M586 1946 c3 -8 -20 -46 -53 -88 -32 -40 -72 -94 -88 -121 -17 -26 -38 -47 -47 -47 -9 0 -20 -4 -23 -10 -11 -18 -32 -11 -80 26 -26 19 -49 33 -51 31 -10 -9 9 -34 51 -65 39 -30 44 -38 43 -70 0 -21 -13 -62 -28 -92 -25 -52 -47 -106 -86 -212 -9 -27 -23 -48 -31 -48 -10 0 -13 -15 -11 -65 3 -67 6 -73 25 -54 7 7 22 -13 52 -71 23 -45 68 -121 101 -170 64 -93 241 -295 290 -332 17 -12 30 -29 30 -38 0 -8 7 -26 16 -39 14 -20 15 -31 6 -75 -22 -105 -24 -135 -10 -155 13 -18 14 -15 16 27 2 26 9 72 16 102 12 54 13 55 45 52 19 -2 64 -26 109 -58 107 -76 124 -91 120 -111 -4 -24 -103 -51 -185 -52 -35 -1 -63 -5 -63 -11 0 -17 111 -10 200 13 98 25 136 20 244 -31 150 -72 216 -96 328 -117 93 -18 128 -19 128 -5 0 6 -16 10 -35 10 -93 0 -281 57 -421 128 -46 23 -60 35 -61 54 -1 20 11 29 94 68 53 25 138 70 190 100 84 51 97 55 136 50 40 -5 50 -12 135 -112 51 -59 112 -123 135 -142 34 -28 40 -37 30 -47 -17 -17 -16 -29 3 -29 8 0 12 -4 9 -10 -3 -5 -1 -10 5 -10 6 0 13 7 17 16 4 11 13 14 31 9 20 -5 23 -3 18 11 -3 9 -1 23 5 30 9 11 8 14 -5 14 -12 0 -16 6 -12 18 11 37 27 173 34 278 6 100 6 110 -9 107 -14 -4 -17 -28 -23 -146 -7 -125 -16 -203 -31 -245 -8 -23 -40 4 -141 121 -125 145 -130 152 -116 180 6 12 13 33 16 47 4 22 0 28 -26 38 -17 6 -35 9 -39 6 -5 -3 -9 0 -9 6 0 8 -6 8 -19 0 -17 -9 -25 -4 -56 33 -20 24 -50 51 -66 61 -16 10 -26 22 -23 28 4 7 2 8 -4 4 -13 -8 1 -35 56 -104 31 -39 33 -45 22 -71 -6 -16 -10 -37 -8 -46 4 -21 -94 -84 -264 -170 -92 -47 -111 -53 -133 -45 -15 6 -41 10 -58 10 -43 1 -217 123 -217 153 0 11 -9 31 -21 43 -19 20 -20 27 -10 57 15 45 22 81 14 74 -3 -4 -12 1 -20 11 -8 9 -12 12 -9 6 3 -6 -1 -32 -10 -58 -14 -40 -20 -46 -43 -46 -51 0 -291 266 -399 442 -103 169 -110 203 -63 333 49 136 87 208 126 238 l35 28 60 -36 c37 -22 60 -44 63 -58 2 -12 5 3 5 33 1 30 -2 50 -6 44 -5 -8 -23 -2 -59 18 -72 41 -71 61 7 169 83 116 121 157 150 164 23 5 29 -1 71 -84 l45 -90 -25 -4 c-19 -3 -16 -4 11 -6 20 0 39 3 42 8 3 4 -18 54 -47 109 l-52 102 -47 0 c-37 0 -46 -3 -42 -14z"></path><path id="p14TvgTuZF" d="M1276 1778 c-30 -57 -92 -177 -138 -268 -52 -103 -89 -165 -98 -165 -9 0 -60 75 -123 180 -59 99 -112 182 -117 183 -15 5 -12 -35 5 -68 9 -17 54 -94 100 -171 47 -78 84 -144 81 -146 -2 -2 -45 16 -95 41 -50 25 -93 46 -96 46 -3 0 -5 -8 -5 -19 0 -13 23 -31 80 -60 75 -39 80 -44 80 -74 0 -18 7 -43 16 -55 15 -22 13 -30 -42 -157 -35 -82 -62 -132 -68 -128 -6 4 -2 -3 8 -15 11 -12 22 -22 26 -22 3 0 32 63 65 139 l58 139 40 4 39 4 71 -106 c87 -131 84 -128 96 -99 6 17 5 29 -4 39 -32 39 -126 182 -122 186 3 3 37 -11 76 -30 39 -20 72 -33 73 -29 6 31 -4 41 -74 75 -56 26 -78 43 -78 56 0 10 -7 27 -15 38 -8 10 -15 25 -15 32 0 17 123 274 150 312 11 15 20 32 20 38 0 5 23 50 50 100 28 50 50 93 50 96 0 3 -9 6 -19 6 -15 0 -34 -26 -75 -102z"></path><path id="pz4qGO1Yb" d="M1774 1758 c59 -216 153 -855 129 -879 -7 -7 -71 20 -184 74 -170 81 -175 83 -171 58 3 -23 23 -35 159 -97 86 -39 164 -69 174 -67 23 6 99 74 79 71 -11 -2 -16 16 -22 82 -20 217 -100 694 -128 758 -5 12 -17 22 -26 22 -12 0 -15 -6 -10 -22z"></path><path id="p1Cm40JP5D" d="M2506 1485 c-37 -71 -164 -243 -231 -315 -39 -41 -51 -60 -46 -74 17 -45 320 377 309 429 -2 9 -16 -10 -32 -40z"></path><path id="pgkfHMwET" d="M2573 1400 c0 -30 2 -43 4 -27 2 15 2 39 0 55 -2 15 -4 2 -4 -28z"></path><path id="p1FjG2dkFk" d="M2560 1286 c0 -8 5 -18 10 -21 6 -3 10 3 10 14 0 12 -4 21 -10 21 -5 0 -10 -6 -10 -14z"></path><path id="p16TowfnDi" d="M2520 998 c-6 -24 -24 -82 -40 -131 -16 -48 -25 -85 -19 -82 8 6 59 163 73 228 10 44 -2 31 -14 -15z"></path><path id="pv7hDya6Q" d="M2431 732 c-32 -62 -42 -67 -103 -47 -29 10 -79 30 -111 45 -48 23 -60 25 -64 13 -8 -20 -2 -24 105 -64 86 -33 97 -40 100 -63 4 -31 -39 -110 -110 -204 -27 -35 -47 -66 -45 -68 4 -5 82 102 132 181 52 84 74 105 107 105 15 0 28 5 28 10 0 6 -9 10 -20 10 -25 0 -27 34 -6 85 20 47 11 44 -13 -3z"></path></g></g></svg>